# xmcd
#
# Track frame offsets: 
#        150
#        11242
#        22132
#        32502
#        42683
#        55904
#        67005
#        80301
#        92963
#        106486
#        117386
#        127866
#        138942
#        148695
#        161620
#        173896
#        185188
#        197324
#        206479
#        216740
#        226797
#        238883
#        249843
#        262229
#        271558
#        281157
#        293330
#        305095
#        313451
#        325714
#
# Disc length: 4493 seconds
#
# Revision: 1
# Processed by: cddbd v1.5.2PL0 Copyright (c) Steve Scherf et al.
# Submitted via: ExactAudioCopyFreeDBPlugin 1.0
#
DISCID=cb118b1e
DTITLE=Various Artist - Jamaica Selects Jump Blues Strictly For You: 
DTITLE=Jamaican Sound System Classics, 1944-1960
DYEAR=2012
DGENRE=Rhythm and Blues
TTITLE0=Nappy Brown - Don't Be Angry
TTITLE1=Boo Breeding - Country Woman
TTITLE2=Plas Johnson - Blue Jean Shuffle
TTITLE3=The Dodgers - The Cat Hop
TTITLE4=The Penguins - Baby Let's Make Some Love
TTITLE5=The Mello-Harps - Ain't Got the Money
TTITLE6=The Turbans - When You Dance
TTITLE7=Big Joe Turner - Flip, Flop and Fly
TTITLE8=Jack Dupree and Mr. Bear - Walking the Blues
TTITLE9=Shirley and Lee - Let the Good Times Roll
TTITLE10=Vince Monroe - Give It Up (Or Tell Where It's At)
TTITLE11=Smiley Lewis - She's Got Me Hook, Line and Sinker
TTITLE12=Lloyd Price - Forgive Me, Clawdy
TTITLE13=Ivory Joe Hunter - Since I Met You Baby
TTITLE14=The Pastels - Been So Long
TTITLE15=Dave Bartholomew - The Monkey
TTITLE16=Sil Austin - Slow Walk
TTITLE17=Professor Longhair - Misery
TTITLE18=Clyde McPhatter - Rock and Cry
TTITLE19=The Bobbettes - Mr. Lee
TTITLE20=Oscar McLollie and Jeanette Baker - Hey Boy Hey Girl
TTITLE21=The Gone All Stars - The Gee Gee Walk  (ft Buddy Lucas)
TTITLE22=Preston Brown - Walk On
TTITLE23=Johnny Otis Show - You Just Kissed Me Goodbye
TTITLE24=Earl (Connelly) King - Don't Want Your Love
TTITLE25=Billy Hope - Riding West
TTITLE26=Earl Hooker - Do the Chickin'
TTITLE27=Ernie Freeman - Live it Up
TTITLE28=Hal Paige - Going Back to My Home Town
TTITLE29=Rosco Gordon - Surely I Love You
EXTD=
EXTT0=
EXTT1=
EXTT2=
EXTT3=
EXTT4=
EXTT5=
EXTT6=
EXTT7=
EXTT8=
EXTT9=
EXTT10=
EXTT11=
EXTT12=
EXTT13=
EXTT14=
EXTT15=
EXTT16=
EXTT17=
EXTT18=
EXTT19=
EXTT20=
EXTT21=
EXTT22=
EXTT23=
EXTT24=
EXTT25=
EXTT26=
EXTT27=
EXTT28=
EXTT29=
PLAYORDER=
